<svg id="svg" version="1.1" xmlns="http://www.w3.org/2000/svg" xmlns:xlink="http://www.w3.org/1999/xlink" width="400" height="108.07819992622649" viewBox="0, 0, 400,108.07819992622649"><g id="svgg"><path id="path0" d="M366.667 3.667 L 366.667 7.167 363.750 7.167 L 360.833 7.167 360.833 32.667 L 360.833 58.167 363.750 58.167 L 366.667 58.167 366.667 61.837 L 366.667 65.506 370.375 65.462 L 374.083 65.417 374.128 61.792 L 374.173 58.167 376.503 58.167 L 378.833 58.167 378.833 61.837 L 378.833 65.506 382.542 65.462 L 386.250 65.417 386.295 61.625 L 386.340 57.833 386.798 57.833 C 387.050 57.833,387.781 57.688,388.422 57.511 C 389.062 57.333,389.773 57.152,390.002 57.109 C 394.442 56.269,398.897 51.015,399.663 45.714 C 400.724 38.378,397.019 32.537,390.438 31.171 L 389.506 30.978 390.711 30.019 C 393.609 27.714,394.788 25.156,394.954 20.814 C 395.198 14.443,392.214 9.534,387.214 8.080 L 386.333 7.824 386.333 3.995 L 386.333 0.167 382.583 0.167 L 378.833 0.167 378.833 3.667 L 378.833 7.167 376.500 7.167 L 374.167 7.167 374.167 3.667 L 374.167 0.167 370.417 0.167 L 366.667 0.167 366.667 3.667 M25.333 7.188 C 13.524 7.702,5.841 14.132,3.453 25.500 C 2.948 27.903,2.911 34.047,3.390 36.000 C 3.558 36.688,3.719 37.363,3.747 37.501 C 3.871 38.105,4.508 39.883,4.779 40.376 C 8.012 46.285,10.372 47.965,20.750 51.747 C 30.254 55.210,31.912 56.536,31.907 60.667 C 31.894 69.927,18.396 69.954,8.335 60.714 C 8.107 60.505,7.882 60.334,7.835 60.334 C 7.726 60.335,0.250 75.196,0.250 75.410 C 0.250 75.995,6.372 79.552,9.604 80.846 C 18.475 84.397,28.961 84.600,36.833 81.374 C 37.921 80.928,38.304 80.737,40.000 79.789 C 52.680 72.704,54.842 50.949,43.708 42.478 C 43.182 42.078,42.676 41.689,42.584 41.615 C 40.547 39.975,35.546 37.713,30.750 36.262 C 29.925 36.013,29.100 35.745,28.917 35.668 C 28.733 35.591,28.433 35.490,28.250 35.444 C 24.290 34.443,21.478 31.502,21.721 28.614 C 22.292 21.798,32.143 20.843,39.800 26.860 C 40.842 27.679,41.292 27.713,41.328 26.975 C 41.331 26.915,42.196 25.090,43.250 22.920 C 44.304 20.750,45.167 18.950,45.167 18.920 C 45.167 18.890,45.804 17.553,46.583 15.950 C 47.362 14.347,48.000 12.998,48.000 12.952 C 48.000 12.675,42.480 10.225,39.500 9.180 C 35.444 7.757,29.966 6.987,25.333 7.188 M380.461 16.651 C 383.110 17.707,384.030 19.363,383.784 22.628 C 383.538 25.872,381.113 27.330,375.958 27.332 L 374.167 27.333 374.167 21.728 L 374.167 16.123 376.875 16.212 C 379.095 16.285,379.742 16.364,380.461 16.651 M56.278 17.444 C 56.217 17.506,56.167 20.843,56.167 24.861 L 56.167 32.167 53.417 32.167 L 50.667 32.167 50.667 39.500 L 50.667 46.833 53.417 46.833 L 56.167 46.833 56.167 65.000 L 56.167 83.167 64.417 83.167 L 72.667 83.167 72.667 65.000 L 72.667 46.833 76.583 46.833 L 80.500 46.833 80.500 65.000 L 80.500 83.167 88.739 83.167 L 96.978 83.167 97.048 70.458 C 97.087 63.469,97.171 57.450,97.234 57.083 C 97.695 54.417,98.270 52.526,98.941 51.462 C 99.157 51.120,99.333 50.793,99.333 50.735 C 99.333 50.076,102.109 47.807,103.667 47.193 C 106.449 46.095,110.906 46.119,113.559 47.246 C 114.291 47.557,114.295 47.343,113.514 49.917 C 109.855 61.973,114.518 75.762,124.202 81.526 C 128.113 83.853,130.857 84.579,135.750 84.582 C 141.605 84.585,145.176 83.111,148.896 79.157 L 150.183 77.788 150.133 80.478 L 150.083 83.167 158.375 83.167 L 166.667 83.167 166.667 65.000 L 166.667 46.833 170.583 46.833 L 174.500 46.833 174.500 65.000 L 174.500 83.167 182.833 83.167 L 191.167 83.167 191.167 65.000 L 191.167 46.833 194.851 46.833 C 198.293 46.833,198.528 46.853,198.421 47.125 C 196.512 51.971,195.785 59.960,196.809 64.833 C 199.203 76.228,206.678 83.203,218.500 85.076 C 227.671 86.528,238.812 82.890,242.722 77.167 C 244.721 74.241,245.591 72.610,246.417 70.237 L 246.988 68.597 247.244 69.210 C 247.385 69.547,247.500 69.856,247.500 69.896 C 247.500 69.937,247.774 70.558,248.110 71.277 C 254.239 84.413,271.550 88.249,281.806 78.742 L 283.029 77.609 282.951 81.263 C 282.840 86.479,282.430 88.001,280.474 90.448 C 276.568 95.335,266.896 94.671,264.837 89.375 L 264.626 88.833 255.303 88.833 L 245.979 88.833 246.078 89.451 C 247.032 95.457,251.972 101.505,258.628 104.815 C 263.765 107.370,272.008 108.498,277.743 107.431 C 288.400 105.448,295.286 100.265,298.132 92.083 C 299.480 88.209,299.548 86.819,299.621 61.601 C 299.657 49.419,299.745 39.519,299.818 39.601 C 299.891 39.683,300.402 40.612,300.954 41.667 C 301.505 42.721,302.217 44.071,302.536 44.667 C 302.854 45.262,303.587 46.650,304.164 47.750 C 304.742 48.850,305.478 50.237,305.800 50.833 C 306.122 51.429,306.757 52.629,307.211 53.500 C 308.057 55.120,309.144 57.177,310.253 59.250 C 310.596 59.892,311.668 61.917,312.635 63.750 C 313.602 65.583,315.170 68.546,316.119 70.333 C 317.069 72.121,318.153 74.189,318.529 74.930 L 319.212 76.276 318.168 78.346 C 315.513 83.606,313.122 88.265,312.998 88.417 C 312.923 88.508,312.856 88.640,312.849 88.709 C 312.842 88.778,312.505 89.491,312.100 90.292 C 308.840 96.744,307.371 99.632,307.205 99.917 C 307.097 100.100,306.191 101.900,305.191 103.917 L 303.374 107.583 312.668 107.539 L 321.963 107.495 323.655 104.122 C 325.530 100.387,332.597 86.398,338.829 74.083 C 341.056 69.683,344.301 63.271,346.041 59.833 C 347.780 56.396,349.279 53.490,349.372 53.375 C 349.465 53.260,349.485 53.167,349.417 53.167 C 349.348 53.167,349.369 53.073,349.461 52.958 C 349.554 52.844,351.676 48.700,354.175 43.750 C 356.675 38.800,358.971 34.262,359.276 33.667 C 359.582 33.071,359.832 32.527,359.833 32.458 C 359.833 32.390,355.565 32.333,350.349 32.333 L 340.864 32.333 339.849 34.425 C 339.290 35.575,338.833 36.546,338.833 36.583 C 338.833 36.619,338.318 37.722,337.688 39.033 C 337.057 40.344,336.278 41.979,335.956 42.667 C 335.277 44.114,333.802 47.221,332.710 49.500 C 331.994 50.996,330.510 54.112,328.959 57.378 L 328.264 58.839 326.823 55.878 C 326.030 54.249,324.666 51.454,323.792 49.667 C 322.425 46.870,321.099 44.166,316.134 34.042 L 315.296 32.333 299.148 32.333 L 283.000 32.333 283.000 35.434 L 283.000 38.535 281.642 37.257 C 276.198 32.136,268.398 30.864,260.813 33.862 C 254.825 36.228,249.748 41.774,247.263 48.663 C 246.593 50.520,246.609 50.518,246.087 48.802 C 242.840 38.132,234.414 32.325,222.196 32.336 C 212.857 32.345,205.557 35.726,201.203 42.060 L 200.417 43.203 200.373 37.768 L 200.329 32.333 195.748 32.333 L 191.167 32.333 191.167 24.917 L 191.167 17.500 182.833 17.500 L 174.500 17.500 174.500 24.917 L 174.500 32.333 162.333 32.333 L 150.167 32.333 150.167 35.417 C 150.167 38.572,150.095 38.887,149.561 38.073 C 148.917 37.090,145.780 34.839,143.742 33.897 C 139.500 31.937,132.671 31.798,127.951 33.576 C 123.043 35.425,119.184 38.790,115.885 44.097 C 115.729 44.348,115.684 43.028,115.676 37.968 C 115.669 33.001,115.619 31.489,115.458 31.385 C 115.344 31.311,114.298 31.224,113.134 31.192 C 106.696 31.014,102.044 33.304,98.122 38.583 C 97.578 39.317,97.099 39.951,97.060 39.992 C 97.020 40.034,97.009 38.290,97.036 36.117 L 97.083 32.166 84.875 32.167 L 72.667 32.167 72.667 24.750 L 72.667 17.333 64.528 17.333 C 60.051 17.333,56.339 17.383,56.278 17.444 M380.167 37.260 C 384.213 37.658,386.102 39.179,386.258 42.167 C 386.462 46.074,384.119 47.526,377.208 47.776 L 374.167 47.886 374.167 42.418 L 374.167 36.950 376.708 37.060 C 378.106 37.120,379.662 37.211,380.167 37.260 M225.546 44.000 C 228.694 44.973,232.048 48.751,232.165 51.458 C 232.166 51.481,227.977 51.500,222.856 51.500 L 213.545 51.500 213.667 50.875 C 214.704 45.554,220.227 42.358,225.546 44.000 M275.550 47.272 C 285.171 49.450,286.833 63.455,278.026 68.130 C 274.683 69.904,269.728 69.627,267.400 67.537 C 267.224 67.379,266.781 66.992,266.415 66.677 C 259.508 60.729,262.644 49.230,271.750 47.116 C 272.511 46.939,274.430 47.018,275.550 47.272 M143.167 47.813 C 149.173 49.731,152.325 57.384,149.548 63.306 C 144.651 73.752,130.046 70.543,129.548 58.911 C 129.427 56.089,130.861 51.500,131.863 51.500 C 131.938 51.500,132.000 51.403,132.000 51.285 C 132.000 51.033,132.967 50.117,134.207 49.194 C 135.187 48.465,136.964 47.707,138.040 47.560 C 138.431 47.507,138.782 47.434,138.820 47.398 C 139.029 47.202,142.206 47.506,143.167 47.813 M245.667 62.301 C 245.667 62.935,246.263 66.140,246.578 67.202 C 246.719 67.674,246.833 68.122,246.833 68.197 C 246.833 68.272,243.281 68.333,238.939 68.333 L 231.044 68.333 230.611 68.988 C 228.746 71.806,225.544 73.189,221.750 72.815 C 216.172 72.265,213.619 69.411,213.079 63.125 L 212.968 61.833 229.318 61.833 L 245.667 61.833 245.667 62.301 " stroke="none" fill="#fc640c" fill-rule="evenodd"></path><path id="path1" d="M26.375 7.119 C 26.627 7.158,27.040 7.158,27.292 7.119 C 27.544 7.081,27.337 7.050,26.833 7.050 C 26.329 7.050,26.123 7.081,26.375 7.119 M362.200 7.124 C 362.997 7.154,364.347 7.155,365.200 7.124 C 366.052 7.094,365.400 7.069,363.750 7.069 C 362.100 7.069,361.402 7.093,362.200 7.124 M375.292 7.124 C 375.956 7.155,377.044 7.155,377.708 7.124 C 378.373 7.092,377.829 7.066,376.500 7.066 C 375.171 7.066,374.627 7.092,375.292 7.124 M375.048 27.290 C 375.578 27.323,376.403 27.323,376.881 27.289 C 377.359 27.256,376.925 27.229,375.917 27.229 C 374.908 27.229,374.517 27.257,375.048 27.290 M150.069 35.417 C 150.070 37.158,150.094 37.848,150.124 36.950 C 150.154 36.051,150.154 34.626,150.124 33.783 C 150.094 32.940,150.069 33.675,150.069 35.417 M166.747 65.000 C 166.747 75.037,166.767 79.144,166.792 74.125 C 166.816 69.106,166.816 60.894,166.792 55.875 C 166.767 50.856,166.747 54.962,166.747 65.000 M150.067 80.417 C 150.068 81.883,150.093 82.461,150.124 81.700 C 150.155 80.940,150.155 79.740,150.124 79.034 C 150.093 78.328,150.067 78.950,150.067 80.417 M308.042 107.625 C 310.585 107.651,314.748 107.651,317.292 107.625 C 319.835 107.599,317.754 107.578,312.667 107.578 C 307.579 107.578,305.498 107.599,308.042 107.625 " stroke="none" fill="#fc6414" fill-rule="evenodd"></path><path id="path2" d="" stroke="none" fill="#100640c" fill-rule="evenodd"></path><path id="path3" d="" stroke="none" fill="#100640c" fill-rule="evenodd"></path><path id="path4" d="" stroke="none" fill="#100640c" fill-rule="evenodd"></path></g></svg>