<svg id="svg" version="1.1" xmlns="http://www.w3.org/2000/svg" xmlns:xlink="http://www.w3.org/1999/xlink" width="400" height="225" viewBox="0, 0, 400,225"><g id="svgg"><path id="path0" d="M197.022 5.343 C 194.773 5.471,193.951 5.587,190.917 6.202 C 190.000 6.388,188.912 6.599,188.500 6.671 C 187.204 6.896,184.325 7.828,182.641 8.566 C 182.307 8.713,181.996 8.833,181.952 8.833 C 181.846 8.833,178.348 10.450,177.917 10.698 C 177.733 10.804,177.208 11.082,176.750 11.316 C 176.292 11.550,175.879 11.790,175.833 11.849 C 175.787 11.907,175.600 12.002,175.417 12.060 C 175.233 12.118,174.865 12.353,174.599 12.582 C 174.333 12.812,174.048 13.000,173.967 13.000 C 173.886 13.000,173.729 13.079,173.618 13.175 C 173.433 13.335,172.392 14.097,171.239 14.917 C 169.717 15.999,168.893 16.691,167.068 18.421 C 164.157 21.181,163.834 21.502,163.831 21.633 C 163.829 21.697,163.595 22.012,163.311 22.333 C 163.026 22.654,162.521 23.251,162.188 23.660 C 161.856 24.069,161.471 24.526,161.333 24.676 C 160.873 25.180,160.556 25.604,160.241 26.137 C 160.069 26.428,159.874 26.667,159.809 26.667 C 159.743 26.667,159.636 26.835,159.571 27.042 C 159.506 27.248,159.153 27.867,158.785 28.417 C 158.036 29.538,157.167 30.975,157.167 31.091 C 157.167 31.132,176.742 31.167,200.667 31.167 C 226.998 31.167,244.167 31.106,244.167 31.014 C 244.167 30.799,243.610 29.762,243.458 29.694 C 243.390 29.664,243.333 29.567,243.333 29.479 C 243.333 29.391,243.252 29.229,243.153 29.118 C 243.054 29.007,242.678 28.467,242.318 27.917 C 241.075 26.016,240.780 25.590,240.557 25.367 C 240.434 25.244,240.333 25.079,240.333 25.001 C 240.333 24.923,240.127 24.643,239.875 24.378 C 239.623 24.114,239.274 23.714,239.100 23.490 C 237.746 21.751,235.156 19.065,233.324 17.500 C 232.734 16.996,232.063 16.408,231.834 16.194 C 231.604 15.980,231.118 15.612,230.754 15.376 C 230.389 15.141,229.990 14.847,229.867 14.724 C 229.744 14.601,229.587 14.500,229.520 14.500 C 229.452 14.500,229.249 14.369,229.069 14.208 C 228.484 13.687,225.913 12.000,225.704 12.000 C 225.592 12.000,225.500 11.925,225.500 11.833 C 225.500 11.742,225.387 11.667,225.250 11.667 C 225.112 11.667,225.000 11.598,225.000 11.513 C 225.000 11.429,224.756 11.307,224.458 11.242 C 224.160 11.178,223.879 11.068,223.833 10.998 C 223.732 10.842,219.748 8.922,219.167 8.748 C 218.938 8.679,218.450 8.490,218.083 8.328 C 216.252 7.518,213.945 6.864,210.833 6.272 C 207.284 5.597,206.426 5.482,203.863 5.333 C 200.819 5.156,200.307 5.157,197.022 5.343 M150.833 41.417 L 150.833 49.167 161.170 49.167 L 171.507 49.167 172.208 48.724 C 172.594 48.480,173.010 48.180,173.133 48.057 C 173.256 47.934,173.464 47.833,173.595 47.833 C 173.726 47.833,173.833 47.776,173.833 47.706 C 173.833 47.636,174.144 47.444,174.524 47.279 C 174.905 47.115,176.048 46.434,177.066 45.768 C 178.084 45.101,179.404 44.266,180.000 43.912 C 180.596 43.557,181.108 43.207,181.139 43.134 C 181.169 43.060,181.282 42.998,181.389 42.995 C 181.496 42.992,182.633 42.321,183.917 41.503 C 185.200 40.686,187.037 39.554,188.000 38.988 C 188.963 38.422,190.178 37.668,190.700 37.313 C 191.223 36.957,191.729 36.667,191.825 36.667 C 191.921 36.667,192.000 36.593,192.000 36.503 C 192.000 36.413,192.188 36.293,192.417 36.235 C 192.646 36.178,192.833 36.075,192.833 36.008 C 192.833 35.941,193.115 35.743,193.458 35.568 C 193.802 35.393,194.121 35.206,194.167 35.152 C 194.213 35.099,194.681 34.781,195.208 34.446 C 195.735 34.111,196.167 33.799,196.167 33.752 C 196.167 33.705,185.967 33.667,173.500 33.667 L 150.833 33.667 150.833 41.417 M206.333 33.833 C 206.333 33.925,206.403 34.000,206.488 34.000 C 206.573 34.000,206.742 34.095,206.863 34.211 C 206.984 34.327,208.133 35.111,209.417 35.954 C 210.700 36.796,211.831 37.554,211.929 37.639 C 212.028 37.723,212.259 37.840,212.442 37.898 C 212.625 37.956,212.919 38.137,213.096 38.299 C 213.272 38.461,214.242 39.109,215.250 39.738 C 216.258 40.368,217.121 40.933,217.167 40.995 C 217.213 41.058,217.494 41.250,217.792 41.423 C 218.090 41.597,218.333 41.797,218.333 41.869 C 218.333 41.941,218.431 42.000,218.549 42.000 C 218.668 42.000,218.912 42.113,219.091 42.252 C 219.270 42.391,219.992 42.859,220.696 43.294 C 221.400 43.728,222.638 44.533,223.446 45.082 C 224.255 45.632,225.044 46.157,225.199 46.249 C 225.355 46.341,226.462 47.035,227.659 47.792 L 229.836 49.167 240.085 49.167 L 250.333 49.167 250.333 41.417 L 250.333 33.667 228.333 33.667 C 213.778 33.667,206.333 33.723,206.333 33.833 M198.165 35.940 C 196.379 37.069,194.823 37.994,194.708 37.996 C 194.594 37.998,194.500 38.075,194.500 38.167 C 194.500 38.258,194.424 38.333,194.330 38.333 C 194.118 38.333,190.603 40.522,190.528 40.701 C 190.497 40.774,190.366 40.833,190.236 40.833 C 190.106 40.833,190.000 40.900,190.000 40.982 C 190.000 41.064,189.813 41.178,189.583 41.235 C 189.354 41.293,189.167 41.413,189.167 41.503 C 189.167 41.593,189.054 41.667,188.917 41.667 C 188.779 41.667,188.667 41.734,188.667 41.815 C 188.667 41.897,188.479 42.011,188.250 42.068 C 188.021 42.126,187.833 42.247,187.833 42.337 C 187.833 42.426,187.718 42.500,187.577 42.500 C 187.335 42.500,186.512 42.952,186.333 43.183 C 186.287 43.243,185.425 43.797,184.417 44.415 C 183.408 45.034,182.080 45.868,181.464 46.270 C 180.848 46.671,180.300 47.000,180.246 47.000 C 180.192 47.000,179.646 47.309,179.033 47.686 C 178.419 48.063,177.711 48.494,177.459 48.644 C 177.208 48.794,177.002 48.973,177.001 49.042 C 177.000 49.110,187.688 49.167,200.750 49.167 C 213.813 49.167,224.499 49.110,224.498 49.042 C 224.496 48.973,224.047 48.654,223.500 48.333 C 222.953 48.012,222.504 47.703,222.502 47.645 C 222.501 47.587,222.086 47.330,221.580 47.074 C 221.073 46.818,220.577 46.509,220.476 46.387 C 220.375 46.266,220.226 46.167,220.145 46.167 C 220.063 46.167,219.604 45.890,219.123 45.551 C 217.476 44.389,215.241 42.917,214.746 42.667 C 214.473 42.529,214.151 42.323,214.030 42.208 C 213.909 42.094,213.759 42.000,213.696 42.000 C 213.634 42.000,213.365 41.812,213.099 41.583 C 212.833 41.354,212.520 41.167,212.405 41.167 C 212.289 41.167,212.169 41.102,212.139 41.024 C 212.108 40.945,211.453 40.488,210.683 40.007 C 209.913 39.526,209.131 38.991,208.946 38.818 C 208.760 38.645,208.471 38.460,208.304 38.407 C 208.137 38.354,208.000 38.241,208.000 38.155 C 208.000 38.070,207.914 38.000,207.810 38.000 C 207.574 38.000,205.438 36.669,205.361 36.475 C 205.331 36.397,205.211 36.333,205.095 36.333 C 204.980 36.333,204.667 36.146,204.401 35.917 C 204.135 35.688,203.866 35.500,203.804 35.500 C 203.741 35.500,203.591 35.401,203.470 35.281 C 203.349 35.160,202.837 34.798,202.332 34.475 L 201.414 33.889 198.165 35.940 M150.833 53.750 L 150.833 55.667 151.424 55.667 C 151.987 55.667,152.037 55.618,152.467 54.655 L 152.919 53.643 153.219 54.655 L 153.520 55.667 154.718 55.668 L 155.917 55.669 155.417 55.996 C 154.120 56.844,153.956 57.111,154.310 57.803 C 154.718 58.600,154.695 59.006,154.253 58.804 C 154.022 58.699,153.833 58.566,153.833 58.509 C 153.833 57.970,152.843 57.862,152.247 58.336 C 151.903 58.609,151.568 58.833,151.504 58.833 C 151.038 58.833,151.004 60.023,151.002 76.254 L 151.000 92.833 160.750 92.833 L 170.500 92.833 170.500 72.333 L 170.500 51.833 160.667 51.833 L 150.833 51.833 150.833 53.750 M173.333 72.333 L 173.333 92.833 177.500 92.833 L 181.667 92.833 181.667 72.333 L 181.667 51.833 177.500 51.833 L 173.333 51.833 173.333 72.333 M184.500 72.333 L 184.500 92.833 188.917 92.833 L 193.333 92.833 193.333 72.333 L 193.333 51.833 188.917 51.833 L 184.500 51.833 184.500 72.333 M196.167 72.333 L 196.167 92.833 200.583 92.833 L 205.000 92.833 205.000 72.333 L 205.000 51.833 200.583 51.833 L 196.167 51.833 196.167 72.333 M207.833 72.333 L 207.833 92.833 212.250 92.833 L 216.667 92.833 216.667 72.333 L 216.667 51.833 212.250 51.833 L 207.833 51.833 207.833 72.333 M219.500 72.333 L 219.500 92.833 223.917 92.833 L 228.333 92.833 228.333 72.333 L 228.333 51.833 223.917 51.833 L 219.500 51.833 219.500 72.333 M230.833 72.333 L 230.833 92.833 240.473 92.833 L 250.113 92.833 250.218 75.958 C 250.312 60.726,250.297 59.067,250.060 58.917 C 249.916 58.825,249.533 58.544,249.210 58.292 C 248.543 57.773,248.445 57.750,248.137 58.042 C 247.325 58.809,246.181 59.416,246.816 58.742 C 247.022 58.523,247.310 57.063,247.185 56.871 C 247.129 56.784,246.708 56.479,246.250 56.193 L 245.417 55.673 246.672 55.670 L 247.927 55.667 248.145 54.875 C 248.265 54.440,248.403 53.971,248.451 53.833 C 248.501 53.692,248.686 54.036,248.876 54.625 C 249.185 55.582,249.252 55.667,249.690 55.667 L 250.167 55.667 250.167 53.750 L 250.167 51.833 240.500 51.833 L 230.833 51.833 230.833 72.333 M150.833 57.917 C 150.833 58.512,150.892 59.000,150.964 59.000 C 151.181 59.000,151.454 57.188,151.266 56.999 C 150.927 56.661,150.833 56.860,150.833 57.917 M250.044 56.969 C 249.827 57.107,249.960 57.839,250.313 58.446 C 250.453 58.686,250.491 58.549,250.495 57.792 C 250.500 56.837,250.436 56.720,250.044 56.969 M247.678 67.083 C 247.754 67.267,247.840 67.567,247.869 67.750 C 247.911 68.019,248.128 68.119,249.002 68.271 C 249.597 68.375,250.008 68.469,249.917 68.482 C 249.825 68.494,249.477 68.733,249.143 69.012 L 248.536 69.521 248.749 70.329 C 248.866 70.773,249.013 71.219,249.075 71.320 C 249.153 71.445,249.054 71.442,248.761 71.308 C 248.526 71.201,248.333 71.062,248.333 70.999 C 248.333 70.937,248.085 70.752,247.780 70.588 L 247.227 70.290 246.364 70.911 C 245.889 71.252,245.500 71.498,245.500 71.458 C 245.500 71.418,245.640 70.961,245.811 70.442 L 246.122 69.499 245.269 68.875 L 244.417 68.250 245.537 68.201 L 246.658 68.152 246.912 67.296 C 247.052 66.825,247.172 66.322,247.178 66.178 C 247.188 65.936,247.245 66.039,247.678 67.083 M154.588 67.708 L 154.696 68.333 155.890 68.343 C 156.875 68.351,157.030 68.388,156.778 68.551 C 156.609 68.661,156.272 68.919,156.028 69.125 C 155.783 69.331,155.527 69.500,155.458 69.500 C 155.259 69.500,155.313 70.066,155.585 70.838 C 155.860 71.617,155.813 71.833,155.447 71.478 C 154.365 70.432,154.083 70.329,153.573 70.796 C 153.395 70.959,153.021 71.254,152.741 71.451 L 152.233 71.809 152.604 70.705 C 152.953 69.668,152.958 69.591,152.686 69.426 C 152.527 69.329,152.101 69.063,151.740 68.833 L 151.083 68.417 152.281 68.368 C 153.601 68.314,153.555 68.359,153.915 66.750 L 154.027 66.250 154.253 66.667 C 154.378 66.896,154.528 67.365,154.588 67.708 M159.257 78.917 L 159.546 79.833 160.722 79.833 L 161.899 79.833 161.158 80.372 C 159.985 81.224,159.941 81.284,160.135 81.798 C 160.645 83.147,160.220 83.485,159.342 82.428 C 159.041 82.064,158.771 82.101,158.197 82.583 C 157.432 83.227,156.932 83.104,157.310 82.364 C 157.782 81.442,157.711 81.217,156.724 80.510 L 155.779 79.833 157.020 79.833 L 158.261 79.833 158.488 79.042 C 158.867 77.721,158.880 77.718,159.257 78.917 M242.924 78.917 L 243.190 79.833 244.387 79.834 C 245.575 79.836,245.580 79.838,245.161 80.126 C 243.977 80.942,243.487 81.766,244.000 82.083 C 244.092 82.140,244.167 82.354,244.167 82.560 C 244.167 82.765,244.260 83.028,244.375 83.144 C 244.657 83.429,243.931 83.050,243.222 82.542 C 242.699 82.167,242.167 82.046,242.167 82.303 C 242.167 82.377,241.854 82.614,241.472 82.829 C 240.928 83.135,240.800 83.162,240.879 82.953 C 241.349 81.731,241.371 81.266,240.974 80.950 C 240.759 80.778,240.363 80.457,240.093 80.235 L 239.602 79.833 240.783 79.833 C 241.934 79.833,241.967 79.822,242.071 79.375 C 242.425 77.859,242.590 77.770,242.924 78.917 M166.527 88.708 C 166.698 89.144,166.762 89.167,167.808 89.167 L 168.909 89.167 168.257 89.708 C 167.898 90.006,167.506 90.325,167.384 90.417 C 167.161 90.585,167.288 91.243,167.701 92.058 C 167.912 92.476,167.744 92.601,167.413 92.270 C 167.264 92.121,167.059 92.000,166.957 92.000 C 166.855 92.000,166.594 91.833,166.377 91.629 C 166.122 91.390,165.941 91.322,165.866 91.438 C 165.802 91.536,165.424 91.821,165.026 92.070 C 164.302 92.524,163.951 92.544,164.309 92.112 C 164.881 91.424,164.713 90.444,163.919 89.833 L 163.161 89.250 164.265 89.167 L 165.369 89.083 165.610 88.333 C 166.021 87.059,166.033 87.046,166.195 87.667 C 166.278 87.987,166.428 88.456,166.527 88.708 M235.990 88.458 L 236.180 89.167 237.257 89.167 C 238.467 89.167,238.576 89.285,237.792 89.747 C 236.733 90.371,236.652 90.512,236.917 91.256 C 237.255 92.207,237.251 92.608,236.905 92.262 C 236.761 92.118,236.559 92.000,236.457 92.000 C 236.355 92.000,236.112 91.850,235.917 91.667 C 235.562 91.334,235.562 91.334,235.205 91.667 C 235.008 91.850,234.774 92.000,234.686 92.000 C 234.597 92.000,234.402 92.121,234.254 92.270 C 233.825 92.699,233.793 92.443,234.156 91.487 C 234.342 90.999,234.435 90.558,234.364 90.508 C 234.292 90.458,233.863 90.154,233.409 89.833 L 232.583 89.250 233.776 89.201 L 234.968 89.153 235.270 88.144 C 235.592 87.069,235.619 87.081,235.990 88.458 M150.833 101.250 L 150.833 106.667 160.667 106.667 L 170.500 106.667 170.500 101.250 L 170.500 95.833 160.667 95.833 L 150.833 95.833 150.833 101.250 M173.333 101.250 L 173.333 106.667 186.209 106.667 L 199.086 106.667 199.293 106.003 C 199.604 105.005,199.566 104.895,198.708 104.300 L 197.917 103.750 198.941 103.701 C 200.057 103.647,200.155 103.549,200.419 102.208 C 200.573 101.430,200.720 101.534,201.054 102.659 L 201.349 103.652 202.445 103.701 L 203.541 103.750 202.770 104.302 C 201.955 104.886,201.900 105.048,202.175 106.042 L 202.349 106.667 215.341 106.667 L 228.333 106.667 228.333 101.250 L 228.333 95.833 226.566 95.833 C 224.950 95.833,224.807 95.858,224.910 96.125 C 224.972 96.285,225.111 96.698,225.219 97.042 L 225.414 97.667 226.473 97.667 L 227.532 97.667 226.851 98.236 C 226.476 98.549,226.096 98.830,226.006 98.861 C 225.905 98.895,225.928 99.172,226.066 99.583 C 226.373 100.498,226.537 101.285,226.380 101.082 C 226.254 100.920,225.274 100.171,224.897 99.950 C 224.794 99.890,224.293 100.140,223.783 100.505 L 222.856 101.169 223.025 100.626 C 223.492 99.127,223.508 98.927,223.173 98.695 C 222.997 98.572,222.643 98.291,222.385 98.070 L 221.917 97.667 222.964 97.667 C 223.815 97.667,224.027 97.612,224.101 97.375 C 224.150 97.215,224.261 96.953,224.345 96.794 C 224.907 95.743,227.124 95.833,200.750 95.833 C 178.884 95.833,177.000 95.855,177.000 96.106 C 177.000 96.255,177.087 96.668,177.193 97.022 L 177.386 97.667 178.484 97.667 L 179.582 97.667 178.767 98.246 C 178.319 98.565,177.920 98.858,177.881 98.897 C 177.814 98.964,177.888 99.262,178.313 100.639 C 178.481 101.182,178.327 101.189,177.833 100.661 C 177.787 100.612,177.534 100.406,177.269 100.203 L 176.789 99.834 176.186 100.202 C 175.855 100.405,175.481 100.671,175.355 100.793 C 174.993 101.147,174.956 100.925,175.238 100.093 C 175.577 99.095,175.568 98.882,175.180 98.674 C 175.003 98.579,174.760 98.403,174.638 98.282 C 174.516 98.161,174.267 97.975,174.083 97.869 C 173.808 97.710,173.958 97.676,174.944 97.672 L 176.137 97.667 176.250 97.001 C 176.312 96.635,176.431 96.293,176.515 96.241 C 176.969 95.960,176.497 95.833,175.000 95.833 L 173.333 95.833 173.333 101.250 M231.000 101.250 L 231.000 106.667 240.667 106.667 L 250.333 106.667 250.333 101.250 L 250.333 95.833 240.667 95.833 L 231.000 95.833 231.000 101.250 M188.824 101.708 C 188.832 101.958,189.005 102.000,190.026 102.000 L 191.219 102.000 190.734 102.418 C 190.468 102.647,190.123 102.876,189.967 102.926 C 189.538 103.064,189.462 103.551,189.742 104.357 C 190.119 105.440,190.036 105.610,189.406 105.041 C 188.441 104.168,188.331 104.158,187.385 104.857 C 186.288 105.667,186.300 105.671,186.681 104.627 C 187.091 103.506,187.083 103.260,186.625 102.955 C 186.419 102.818,186.070 102.546,185.849 102.353 L 185.449 102.000 186.545 102.000 C 187.753 102.000,187.711 102.043,188.085 100.417 L 188.200 99.917 188.507 100.667 C 188.676 101.079,188.819 101.548,188.824 101.708 M213.226 100.625 C 213.271 100.785,213.357 101.157,213.416 101.451 C 213.523 101.985,213.526 101.986,214.673 102.035 L 215.822 102.083 215.002 102.667 C 214.095 103.312,214.059 103.426,214.426 104.480 C 214.764 105.450,214.652 105.497,213.723 104.772 C 213.292 104.437,212.897 104.225,212.845 104.302 C 212.793 104.379,212.506 104.584,212.208 104.757 C 211.910 104.930,211.667 105.123,211.667 105.185 C 211.667 105.247,211.563 105.337,211.437 105.386 C 211.188 105.481,211.276 104.882,211.647 103.947 C 211.749 103.689,211.833 103.450,211.833 103.415 C 211.833 103.380,211.413 103.051,210.900 102.683 L 209.967 102.015 211.172 101.966 L 212.378 101.917 212.630 101.125 C 212.894 100.296,213.088 100.134,213.226 100.625 M200.004 106.260 L 199.590 106.667 200.754 106.666 L 201.917 106.665 201.417 106.255 C 200.794 105.744,200.527 105.745,200.004 106.260 " stroke="none" fill="#e47404" fill-rule="evenodd"></path><path id="path1" d="M25.158 110.575 C 24.917 110.816,24.960 113.259,25.208 113.464 C 25.324 113.560,26.563 113.662,28.000 113.694 C 30.830 113.758,30.998 113.808,31.678 114.800 L 32.083 115.392 32.195 130.904 C 32.319 148.130,32.424 150.237,33.360 154.250 C 34.134 157.568,35.075 159.254,37.504 161.675 C 38.412 162.579,40.730 164.168,41.140 164.166 C 41.234 164.166,42.667 164.722,43.750 165.180 C 44.072 165.316,45.177 165.549,46.917 165.847 C 50.072 166.389,55.357 166.422,58.000 165.918 C 60.850 165.374,61.041 165.322,62.039 164.814 C 62.199 164.733,62.412 164.667,62.514 164.667 C 62.616 164.667,62.973 164.547,63.308 164.402 C 65.530 163.434,68.329 161.270,69.647 159.500 C 69.886 159.179,70.122 158.879,70.171 158.833 C 70.386 158.633,71.333 157.037,71.333 156.874 C 71.333 156.775,71.395 156.669,71.471 156.639 C 71.815 156.499,72.892 153.482,73.334 151.417 C 73.412 151.050,73.518 150.637,73.569 150.500 C 73.993 149.350,74.167 143.485,74.167 130.353 C 74.167 112.607,73.862 113.708,78.833 113.512 L 81.250 113.417 81.250 111.925 L 81.250 110.433 71.667 110.425 L 62.083 110.417 62.034 111.665 C 61.950 113.771,61.761 113.628,64.708 113.693 L 67.250 113.750 68.033 114.314 C 69.672 115.493,69.704 115.947,69.618 136.583 C 69.552 152.421,69.630 150.968,68.675 154.167 C 67.714 157.387,65.240 160.201,62.083 161.660 C 59.210 162.988,58.361 163.174,54.679 163.282 C 51.658 163.371,49.815 163.105,47.833 162.296 C 46.919 161.923,45.505 161.143,45.103 160.792 C 44.920 160.631,44.720 160.500,44.658 160.500 C 44.120 160.500,41.797 157.595,41.226 156.210 C 41.084 155.865,40.866 155.358,40.740 155.083 C 40.492 154.540,40.226 153.540,39.997 152.284 C 39.917 151.845,39.806 151.343,39.751 151.169 C 39.641 150.822,39.377 140.862,39.225 131.333 C 39.111 124.154,39.368 116.306,39.747 115.398 C 40.357 113.937,41.198 113.607,44.500 113.531 C 46.026 113.495,47.343 113.391,47.458 113.296 C 47.685 113.111,47.752 110.874,47.539 110.581 C 47.377 110.358,25.382 110.352,25.158 110.575 M263.167 122.022 C 261.844 122.239,260.510 122.679,259.583 123.205 C 259.400 123.309,259.033 123.504,258.768 123.638 C 257.739 124.157,255.333 127.082,255.333 127.813 C 255.333 127.916,255.258 128.000,255.167 128.000 C 255.075 128.000,255.000 128.135,255.000 128.300 C 255.000 128.465,254.906 128.694,254.792 128.808 C 254.371 129.229,254.513 134.723,254.978 136.000 C 256.213 139.396,258.865 141.729,263.500 143.496 C 263.821 143.619,264.479 143.894,264.963 144.109 C 265.447 144.324,265.895 144.500,265.959 144.500 C 266.155 144.500,269.887 146.384,270.233 146.658 C 275.110 150.521,273.999 156.769,268.169 158.262 C 264.338 159.244,259.534 155.992,258.730 151.872 C 258.671 151.572,258.558 151.286,258.478 151.237 C 258.399 151.187,258.333 150.563,258.333 149.849 C 258.333 148.169,258.171 148.000,256.553 148.000 L 255.383 148.000 255.267 149.375 C 255.204 150.131,255.086 151.425,255.006 152.250 C 254.322 159.318,254.326 159.497,255.156 159.711 C 255.938 159.913,256.480 159.643,256.611 158.988 C 256.788 158.100,257.314 158.152,258.481 159.173 C 258.791 159.445,259.145 159.667,259.268 159.667 C 259.390 159.667,259.736 159.804,260.037 159.972 C 260.337 160.141,261.033 160.411,261.583 160.572 C 262.133 160.734,262.762 160.952,262.981 161.057 C 263.574 161.340,268.865 161.311,269.917 161.018 C 272.526 160.291,275.828 158.013,276.255 156.644 C 276.323 156.427,276.424 156.212,276.481 156.167 C 278.495 154.529,278.623 145.914,276.673 143.176 C 276.486 142.913,276.333 142.626,276.333 142.538 C 276.333 142.399,275.938 141.989,274.683 140.829 C 274.371 140.540,272.713 139.500,272.565 139.500 C 272.512 139.500,272.269 139.360,272.026 139.189 C 271.782 139.017,271.396 138.820,271.167 138.750 C 270.938 138.680,270.450 138.495,270.083 138.338 C 268.411 137.622,266.698 137.000,266.397 137.000 C 266.215 137.000,265.995 136.935,265.908 136.855 C 265.821 136.776,265.375 136.575,264.917 136.409 C 264.458 136.243,263.884 135.970,263.641 135.804 C 263.398 135.637,263.149 135.500,263.088 135.500 C 262.508 135.500,260.687 133.603,260.077 132.364 C 258.552 129.265,259.914 126.318,263.550 124.854 C 264.152 124.612,266.388 124.612,267.155 124.855 C 268.254 125.203,269.081 125.577,269.404 125.871 C 269.581 126.031,269.843 126.204,269.988 126.255 C 270.733 126.517,272.393 129.333,273.106 131.545 C 273.277 132.074,273.567 132.697,273.750 132.929 L 274.083 133.351 275.074 133.093 C 276.516 132.717,276.486 132.929,275.817 127.833 C 275.727 127.146,275.598 125.721,275.530 124.667 C 275.385 122.396,275.355 122.333,274.431 122.333 C 273.834 122.333,273.644 122.419,273.289 122.847 L 272.864 123.361 271.640 122.777 C 269.835 121.917,265.936 121.569,263.167 122.022 M301.269 122.522 C 301.232 122.648,301.006 123.366,300.767 124.119 C 300.529 124.872,300.333 125.605,300.333 125.746 C 300.333 125.888,300.266 126.135,300.183 126.294 C 300.101 126.453,299.901 127.033,299.739 127.583 C 299.576 128.133,299.279 129.071,299.077 129.667 C 298.439 131.553,298.379 132.833,298.929 132.833 C 299.053 132.833,299.505 132.952,299.933 133.097 C 300.850 133.409,300.864 133.399,301.674 131.917 C 302.349 130.681,303.042 129.602,303.208 129.528 C 303.277 129.497,303.333 129.373,303.333 129.251 C 303.333 128.937,305.815 126.510,306.235 126.412 C 307.568 126.103,310.621 125.833,312.779 125.833 L 315.333 125.833 315.327 137.125 C 315.319 150.361,315.165 155.473,314.756 156.098 C 314.336 156.738,313.765 156.891,311.417 156.991 L 309.250 157.083 309.202 158.343 C 309.134 160.130,308.923 160.068,314.277 159.833 C 317.509 159.691,319.689 159.690,322.822 159.830 C 327.794 160.051,327.500 160.146,327.500 158.313 L 327.500 157.000 325.792 156.996 C 323.741 156.991,322.920 156.823,322.442 156.309 L 322.083 155.925 322.038 140.548 L 321.993 125.172 322.705 125.247 C 323.096 125.288,324.617 125.362,326.083 125.411 C 330.093 125.544,331.437 125.875,332.268 126.934 C 332.533 127.273,332.982 127.831,333.266 128.176 C 333.550 128.521,334.204 129.662,334.720 130.711 C 335.890 133.090,335.881 133.082,337.117 132.829 C 338.801 132.483,338.795 132.558,337.583 127.517 C 337.107 125.536,337.088 125.333,337.375 125.334 C 338.392 125.339,339.616 126.204,340.712 127.694 C 340.959 128.030,341.257 128.405,341.372 128.527 C 341.807 128.986,343.667 131.603,343.667 131.755 C 343.667 131.842,344.979 133.655,345.171 133.833 C 345.221 133.879,345.521 134.329,345.838 134.833 C 346.156 135.337,346.507 135.862,346.619 136.000 C 347.032 136.508,347.669 137.459,348.683 139.083 C 349.256 140.000,349.776 140.787,349.840 140.833 C 349.903 140.879,350.381 141.603,350.900 142.441 L 351.845 143.965 351.798 150.062 L 351.750 156.159 351.290 156.619 C 350.854 157.055,350.737 157.081,348.995 157.141 C 346.732 157.218,346.036 158.100,346.841 159.867 L 347.016 160.250 354.932 160.248 C 363.845 160.246,363.160 160.359,363.164 158.889 C 363.168 157.558,363.117 157.500,361.929 157.500 C 359.488 157.500,358.811 156.994,358.519 154.952 C 358.312 153.506,358.260 143.394,358.458 143.306 C 358.527 143.275,358.883 142.809,359.250 142.269 C 360.266 140.775,360.370 140.627,361.042 139.718 C 361.385 139.252,361.667 138.814,361.667 138.743 C 361.667 138.605,362.873 136.963,363.368 136.427 C 363.532 136.249,363.667 136.048,363.667 135.980 C 363.667 135.913,363.761 135.758,363.877 135.637 C 363.993 135.516,364.498 134.854,364.998 134.167 C 365.499 133.479,365.948 132.879,365.996 132.833 C 366.044 132.787,366.382 132.307,366.747 131.765 C 367.112 131.223,367.487 130.698,367.581 130.598 C 367.674 130.498,368.085 129.976,368.495 129.437 C 369.335 128.333,370.329 127.180,371.109 126.407 C 371.678 125.843,372.789 125.531,374.500 125.457 L 375.417 125.417 375.417 124.007 L 375.417 122.598 368.917 122.591 L 362.417 122.583 362.417 123.917 L 362.417 125.250 363.823 125.354 C 365.248 125.460,365.833 125.769,365.833 126.415 C 365.833 126.668,365.340 127.882,365.190 128.000 C 365.131 128.046,364.559 128.871,363.918 129.833 C 363.277 130.796,362.582 131.808,362.374 132.083 C 361.813 132.824,361.778 132.876,361.429 133.505 C 361.253 133.823,361.058 134.121,360.996 134.167 C 360.934 134.212,360.557 134.775,360.158 135.417 C 359.758 136.058,359.312 136.696,359.165 136.833 C 358.795 137.181,357.000 140.054,357.000 140.299 C 357.000 140.662,356.744 140.510,356.426 139.958 C 356.253 139.660,355.410 138.348,354.551 137.041 C 353.692 135.735,352.939 134.535,352.878 134.374 C 352.757 134.054,350.842 130.967,350.683 130.833 C 350.628 130.787,350.440 130.469,350.265 130.125 C 350.091 129.781,349.892 129.500,349.825 129.500 C 349.758 129.500,349.656 129.313,349.598 129.083 C 349.541 128.854,349.420 128.667,349.330 128.667 C 349.240 128.667,349.167 128.579,349.167 128.471 C 349.167 128.364,349.062 128.158,348.934 128.013 C 347.469 126.360,347.755 125.486,349.809 125.341 L 351.083 125.250 351.132 124.068 C 351.165 123.253,351.113 122.831,350.965 122.711 C 350.815 122.590,344.584 122.590,330.500 122.712 C 310.794 122.883,307.257 122.843,302.377 122.391 C 301.580 122.317,301.322 122.348,301.269 122.522 M107.000 124.097 C 107.000 125.881,106.950 125.830,108.722 125.840 C 110.982 125.853,111.893 126.652,112.171 128.864 C 112.659 132.741,113.020 150.500,112.611 150.500 C 112.400 150.500,110.000 147.676,110.000 147.427 C 110.000 147.363,109.906 147.212,109.792 147.094 C 109.677 146.975,109.402 146.661,109.181 146.397 C 108.960 146.133,108.585 145.689,108.348 145.411 C 108.111 145.132,107.692 144.616,107.417 144.263 C 107.142 143.910,106.558 143.163,106.119 142.602 C 105.681 142.042,105.156 141.368,104.953 141.105 C 104.750 140.842,104.433 140.467,104.250 140.271 C 104.067 140.075,103.719 139.652,103.477 139.332 C 103.236 139.012,102.898 138.587,102.727 138.388 C 101.737 137.236,101.087 136.428,99.250 134.070 C 98.756 133.436,97.985 132.520,97.500 131.990 C 97.050 131.498,96.696 131.032,96.514 130.693 C 96.416 130.509,96.238 130.260,96.119 130.138 C 96.000 130.016,95.794 129.759,95.660 129.566 C 95.526 129.373,95.100 128.848,94.714 128.399 C 93.559 127.060,92.009 125.092,92.004 124.960 C 91.999 124.820,91.674 124.407,90.823 123.464 L 90.230 122.806 84.657 122.754 C 78.259 122.695,78.667 122.592,78.667 124.265 C 78.667 125.706,78.793 125.833,80.225 125.833 C 81.843 125.833,83.070 126.588,83.886 128.083 L 84.250 128.750 84.214 141.917 C 84.174 156.496,84.207 156.054,83.097 157.039 C 82.617 157.465,82.483 157.495,81.042 157.497 L 79.500 157.500 79.500 158.961 L 79.500 160.422 84.236 160.420 C 89.685 160.416,89.273 160.302,88.768 161.678 C 88.552 162.268,88.279 163.067,88.162 163.454 L 87.950 164.158 85.601 164.204 L 83.252 164.250 82.890 164.917 C 82.672 165.317,82.522 165.899,82.513 166.375 L 82.500 167.167 85.018 167.167 C 87.351 167.167,87.527 167.188,87.415 167.458 C 87.349 167.619,87.239 167.975,87.170 168.250 C 87.101 168.525,86.848 169.333,86.606 170.045 C 86.364 170.758,86.167 171.484,86.167 171.660 C 86.167 171.836,86.092 172.027,86.000 172.083 C 85.908 172.140,85.833 172.357,85.833 172.565 C 85.833 172.774,85.782 172.996,85.718 173.060 C 85.597 173.180,84.935 175.276,84.657 176.417 C 84.567 176.783,84.429 177.233,84.350 177.417 C 84.270 177.600,84.072 178.200,83.910 178.750 C 83.747 179.300,83.482 180.162,83.320 180.667 C 83.159 181.171,82.977 181.846,82.917 182.167 C 82.856 182.487,82.672 183.162,82.507 183.667 C 82.343 184.171,81.967 185.371,81.672 186.333 C 81.076 188.278,80.448 190.053,79.977 191.123 C 79.807 191.512,79.667 191.876,79.667 191.933 C 79.667 192.108,78.334 194.929,77.943 195.583 C 75.787 199.185,73.393 200.261,72.942 197.833 C 72.555 195.752,69.628 195.104,68.612 196.875 C 67.744 198.387,68.612 200.379,70.452 201.099 C 71.252 201.412,73.997 201.374,74.583 201.043 C 74.767 200.939,75.359 200.654,75.900 200.410 C 78.203 199.371,83.000 193.303,83.000 191.429 C 83.000 191.285,83.075 191.167,83.167 191.167 C 83.258 191.167,83.333 191.032,83.333 190.867 C 83.333 190.702,83.400 190.495,83.481 190.408 C 83.617 190.262,84.676 187.741,85.333 186.000 C 85.488 185.588,85.660 185.137,85.715 185.000 C 86.227 183.707,87.192 180.736,87.690 178.917 C 87.791 178.550,88.043 177.725,88.252 177.083 C 88.461 176.442,88.874 175.129,89.170 174.167 C 89.902 171.790,90.472 169.978,90.925 168.583 L 91.303 167.417 95.294 167.417 C 100.420 167.417,100.571 167.485,101.647 170.287 C 102.244 171.840,102.411 172.274,102.647 172.875 C 103.114 174.068,103.666 175.650,103.766 176.083 C 103.829 176.358,104.013 176.883,104.174 177.250 C 104.561 178.131,105.279 180.248,105.475 181.083 C 105.561 181.450,105.751 182.088,105.897 182.500 C 106.333 183.731,107.773 188.175,108.084 189.250 C 108.399 190.340,109.607 194.047,109.821 194.583 C 109.894 194.767,110.084 195.329,110.241 195.833 C 110.399 196.338,110.594 196.900,110.673 197.083 C 110.753 197.267,111.018 198.017,111.263 198.750 C 111.507 199.483,111.763 200.158,111.831 200.250 C 111.899 200.342,112.006 200.642,112.068 200.917 C 112.131 201.192,112.510 202.279,112.910 203.333 C 113.705 205.430,114.251 207.007,114.582 208.167 C 114.700 208.579,115.074 209.667,115.413 210.583 C 115.752 211.500,116.103 212.512,116.192 212.833 C 116.282 213.154,116.466 213.661,116.602 213.959 C 116.738 214.258,116.952 214.820,117.076 215.209 C 117.319 215.971,117.949 217.759,118.118 218.167 C 118.175 218.304,118.384 218.867,118.583 219.417 C 118.908 220.317,118.995 220.422,119.456 220.468 C 119.952 220.517,120.833 219.721,120.833 219.224 C 120.833 219.135,121.010 218.692,121.227 218.240 C 121.443 217.787,121.949 216.592,122.352 215.583 C 122.754 214.575,123.122 213.713,123.168 213.667 C 123.215 213.621,123.414 213.096,123.611 212.500 C 123.807 211.904,124.242 210.779,124.578 210.000 C 124.913 209.221,125.343 208.171,125.533 207.667 C 125.722 207.162,125.934 206.675,126.002 206.583 C 126.070 206.492,126.183 206.229,126.253 206.000 C 126.371 205.610,126.740 204.744,127.519 203.029 C 127.699 202.633,127.893 202.071,127.949 201.779 C 128.005 201.488,128.227 200.861,128.442 200.386 C 128.657 199.910,128.833 199.481,128.833 199.432 C 128.833 199.383,129.021 198.933,129.250 198.432 C 129.479 197.931,129.667 197.481,129.667 197.432 C 129.667 197.383,129.854 196.933,130.083 196.432 C 130.313 195.931,130.500 195.481,130.500 195.432 C 130.500 195.383,130.688 194.933,130.917 194.432 C 131.146 193.931,131.333 193.441,131.333 193.342 C 131.333 193.243,131.400 193.032,131.481 192.873 C 131.562 192.714,131.721 192.358,131.834 192.083 C 131.948 191.808,132.144 191.384,132.270 191.141 C 132.397 190.898,132.500 190.546,132.500 190.359 C 132.500 190.172,132.567 189.978,132.648 189.928 C 132.730 189.878,132.847 189.635,132.909 189.388 C 132.971 189.141,133.162 188.650,133.332 188.296 C 133.503 187.942,133.692 187.431,133.752 187.160 C 133.811 186.888,133.914 186.667,133.980 186.667 C 134.047 186.667,134.240 186.273,134.409 185.792 C 134.734 184.870,135.113 183.973,135.770 182.567 C 135.988 182.099,136.167 181.649,136.167 181.567 C 136.168 181.484,136.344 181.070,136.559 180.646 C 136.774 180.223,136.993 179.660,137.047 179.396 C 137.100 179.133,137.524 178.109,137.988 177.123 C 138.453 176.136,138.833 175.294,138.833 175.252 C 138.833 175.184,139.301 174.225,140.377 172.083 C 141.171 170.504,142.586 168.667,143.008 168.667 C 143.103 168.667,143.323 168.534,143.498 168.371 C 144.066 167.842,145.517 167.476,147.504 167.361 L 149.417 167.250 149.417 165.750 L 149.417 164.250 146.583 164.333 C 145.025 164.379,142.400 164.417,140.750 164.417 C 139.100 164.417,136.250 164.379,134.417 164.333 L 131.083 164.250 131.036 165.767 L 130.988 167.284 132.636 167.375 C 135.341 167.524,135.844 168.018,135.507 170.195 C 135.316 171.429,135.206 171.803,134.411 173.917 C 134.170 174.558,133.873 175.383,133.750 175.750 C 133.287 177.137,132.701 178.688,132.602 178.787 C 132.546 178.843,132.500 179.046,132.500 179.237 C 132.500 179.429,132.271 180.223,131.990 181.001 C 131.710 181.780,131.217 183.204,130.894 184.167 C 130.190 186.268,128.334 191.183,128.156 191.417 C 128.087 191.508,127.976 191.883,127.910 192.250 C 127.844 192.617,127.736 192.992,127.669 193.083 C 127.603 193.175,127.149 194.299,126.660 195.582 C 126.172 196.864,125.674 198.102,125.554 198.332 C 125.434 198.562,125.335 198.866,125.334 199.008 C 125.334 199.150,125.268 199.338,125.189 199.425 C 125.110 199.512,124.836 200.146,124.582 200.833 C 124.327 201.521,124.066 202.158,124.001 202.250 C 123.936 202.342,123.749 202.829,123.585 203.333 C 123.243 204.389,123.171 204.574,122.593 205.880 C 122.358 206.410,122.164 206.897,122.161 206.963 C 122.136 207.468,121.354 208.717,121.251 208.417 C 121.188 208.233,121.074 207.933,120.998 207.750 C 120.922 207.567,120.733 207.042,120.579 206.583 C 120.316 205.803,120.237 205.590,119.850 204.625 C 119.613 204.034,119.038 202.330,118.768 201.417 C 118.633 200.958,118.248 199.833,117.913 198.917 C 117.578 198.000,117.232 196.987,117.144 196.667 C 117.056 196.346,116.910 195.933,116.820 195.750 C 116.514 195.128,114.803 190.088,114.585 189.167 C 114.466 188.662,114.069 187.350,113.704 186.250 C 113.338 185.150,112.906 183.800,112.742 183.250 C 112.579 182.700,112.391 182.175,112.325 182.083 C 112.259 181.992,112.155 181.654,112.093 181.333 C 112.031 181.012,111.917 180.600,111.840 180.417 C 111.763 180.233,111.571 179.633,111.414 179.083 C 111.257 178.533,110.999 177.671,110.841 177.167 C 110.683 176.662,110.422 175.688,110.262 175.000 C 110.101 174.313,109.903 173.487,109.822 173.167 C 108.534 168.060,108.857 167.526,113.308 167.392 C 116.976 167.281,116.667 167.431,116.667 165.765 C 116.667 164.001,117.177 164.127,110.936 164.348 C 106.342 164.511,92.451 164.340,92.229 164.118 C 92.198 164.086,92.316 163.578,92.494 162.989 C 92.671 162.399,92.940 161.467,93.091 160.917 C 93.243 160.367,93.430 159.767,93.507 159.583 C 93.584 159.400,93.699 158.990,93.761 158.672 C 93.824 158.354,93.932 157.979,94.002 157.839 C 94.249 157.337,94.481 156.743,94.589 156.333 C 95.707 152.095,100.989 149.817,101.830 153.211 C 102.239 154.861,102.575 155.162,104.000 155.162 C 105.399 155.162,106.039 154.604,106.266 153.186 L 106.372 152.525 106.728 152.920 C 106.923 153.138,107.271 153.559,107.500 153.856 C 107.729 154.152,108.250 154.763,108.658 155.212 C 109.066 155.661,109.682 156.407,110.027 156.870 C 110.372 157.332,110.768 157.832,110.908 157.980 C 111.047 158.129,111.556 158.692,112.039 159.232 C 113.351 160.699,114.909 161.246,115.599 160.482 C 115.906 160.142,115.917 159.643,115.924 145.190 C 115.934 124.605,115.773 125.737,118.714 125.518 L 120.083 125.417 120.134 124.338 C 120.225 122.386,120.972 122.585,113.507 122.574 L 107.000 122.564 107.000 124.097 M122.833 124.035 L 122.833 125.500 124.426 125.500 C 127.073 125.500,128.522 125.988,128.867 126.996 C 129.172 127.887,129.170 155.506,128.864 156.368 C 128.533 157.304,127.984 157.500,125.683 157.503 C 123.239 157.506,123.308 157.456,123.368 159.157 L 123.417 160.535 132.333 160.538 L 141.250 160.542 141.299 159.160 C 141.358 157.497,141.367 157.506,139.546 157.503 C 137.958 157.500,137.402 157.251,136.695 156.227 L 136.250 155.583 136.201 147.208 C 136.171 142.023,136.092 138.833,135.993 138.833 C 135.894 138.833,135.833 136.485,135.833 132.679 L 135.833 126.526 136.322 126.037 C 136.871 125.488,137.594 125.333,139.607 125.333 L 140.833 125.333 140.833 123.958 L 140.833 122.583 131.833 122.577 L 122.833 122.571 122.833 124.035 M143.389 122.762 C 143.350 122.864,143.340 123.503,143.367 124.182 L 143.417 125.417 144.333 125.502 C 145.889 125.646,148.000 127.925,148.000 129.460 C 148.000 129.576,148.066 129.801,148.147 129.961 C 148.354 130.366,148.584 130.948,148.922 131.917 C 149.083 132.375,149.269 132.825,149.338 132.917 C 149.406 133.008,149.516 133.346,149.583 133.667 C 149.650 133.987,149.756 134.325,149.818 134.417 C 149.972 134.644,150.281 135.626,150.422 136.333 C 150.486 136.654,150.600 136.993,150.674 137.086 C 150.749 137.179,151.120 138.192,151.500 139.336 C 152.178 141.380,153.654 145.407,154.106 146.444 C 154.232 146.734,154.488 147.484,154.675 148.111 C 154.863 148.737,155.079 149.400,155.156 149.583 C 155.519 150.448,157.000 154.451,157.000 154.567 C 157.000 154.696,157.396 155.661,157.659 156.172 C 157.732 156.313,157.848 156.685,157.917 157.000 C 157.986 157.315,158.104 157.687,158.179 157.828 C 158.254 157.968,158.475 158.533,158.671 159.083 C 159.424 161.205,160.508 161.848,161.553 160.792 C 162.010 160.329,163.555 157.203,163.920 156.000 C 163.990 155.771,164.186 155.322,164.357 155.002 C 164.527 154.683,164.667 154.339,164.667 154.239 C 164.667 154.139,164.854 153.688,165.083 153.237 C 165.311 152.786,165.499 152.369,165.499 152.311 C 165.500 152.252,165.837 151.487,166.250 150.610 C 166.662 149.733,167.000 148.970,167.000 148.914 C 167.000 148.858,167.186 148.406,167.412 147.910 C 167.639 147.415,167.872 146.819,167.930 146.588 C 167.989 146.356,168.087 146.167,168.150 146.167 C 168.213 146.167,168.357 145.819,168.471 145.394 C 168.584 144.970,168.862 144.217,169.089 143.723 C 169.315 143.228,169.500 142.769,169.501 142.703 C 169.501 142.637,169.689 142.214,169.917 141.763 C 170.146 141.312,170.333 140.886,170.333 140.817 C 170.333 140.747,170.558 140.204,170.833 139.610 C 171.108 139.016,171.333 138.455,171.333 138.364 C 171.333 138.273,171.480 137.910,171.658 137.557 C 172.134 136.619,173.000 134.554,173.000 134.358 C 173.000 134.265,173.381 133.378,173.846 132.386 C 177.063 125.526,177.195 125.415,182.100 125.420 C 185.116 125.423,185.117 125.423,185.705 125.871 L 186.293 126.319 186.395 128.451 C 186.676 134.262,186.715 156.090,186.446 156.610 C 186.140 157.202,185.849 157.276,183.167 157.442 C 182.204 157.502,181.362 157.633,181.294 157.734 C 181.155 157.941,181.122 159.857,181.252 160.195 C 181.320 160.371,208.679 160.506,211.617 160.344 C 211.866 160.331,212.289 159.371,212.909 157.417 C 213.171 156.592,213.605 155.279,213.874 154.500 C 214.142 153.721,214.460 152.746,214.579 152.333 C 214.698 151.921,214.880 151.368,214.984 151.105 C 215.361 150.153,213.430 149.051,212.708 149.805 C 212.207 150.329,211.703 150.956,211.390 151.446 C 211.053 151.973,209.535 153.963,209.209 154.305 C 209.093 154.426,208.927 154.658,208.841 154.820 C 208.531 155.398,206.657 156.681,205.333 157.219 C 203.785 157.850,203.257 157.917,199.833 157.917 C 193.444 157.917,193.333 157.750,193.333 148.153 L 193.333 142.167 194.292 142.166 C 199.369 142.165,201.549 143.211,202.414 146.064 L 202.712 147.044 203.733 146.949 C 205.334 146.799,205.380 146.764,205.261 145.768 C 205.205 145.300,205.116 142.573,205.064 139.708 L 204.968 134.500 203.746 134.500 L 202.524 134.500 202.321 135.758 C 201.864 138.591,200.004 139.500,194.660 139.500 L 193.333 139.500 193.333 132.442 L 193.333 125.384 197.875 125.448 C 203.661 125.531,204.042 125.638,206.083 127.759 C 208.163 129.920,208.833 130.656,208.833 130.779 C 208.833 130.848,208.983 131.058,209.166 131.244 C 209.870 131.962,210.825 133.089,210.829 133.208 C 210.837 133.427,211.936 133.343,212.578 133.075 C 213.017 132.892,213.167 132.742,213.097 132.560 C 213.043 132.418,212.955 132.103,212.902 131.860 C 212.849 131.616,212.672 131.042,212.508 130.583 C 212.344 130.125,211.977 129.000,211.693 128.083 C 211.408 127.167,211.022 125.929,210.833 125.333 C 210.645 124.737,210.449 123.987,210.397 123.665 C 210.209 122.487,212.087 122.583,189.300 122.583 C 165.891 122.583,168.505 122.405,168.505 124.000 C 168.505 125.394,168.584 125.500,169.633 125.500 C 171.897 125.500,172.141 126.111,170.995 128.917 C 170.920 129.100,170.733 129.625,170.579 130.083 C 170.294 130.929,170.129 131.366,169.839 132.042 C 169.599 132.602,169.017 134.275,168.635 135.500 C 168.450 136.096,168.237 136.733,168.163 136.917 C 168.088 137.100,167.824 137.850,167.574 138.583 C 167.325 139.317,166.381 141.754,165.477 143.999 C 164.573 146.244,163.833 148.181,163.833 148.302 C 163.833 148.496,163.215 150.136,162.603 151.568 C 162.401 152.038,162.377 151.996,161.758 150.068 C 161.407 148.976,160.756 146.977,160.310 145.625 C 159.865 144.273,159.500 143.020,159.500 142.841 C 159.500 142.662,159.416 142.306,159.313 142.050 C 159.210 141.793,159.066 141.433,158.993 141.250 C 158.921 141.067,158.624 140.129,158.333 139.167 C 157.835 137.515,157.729 137.207,157.341 136.292 C 157.254 136.085,157.111 135.654,157.023 135.333 C 156.935 135.012,156.588 134.000,156.251 133.083 C 153.817 126.450,153.983 125.500,157.575 125.500 C 159.415 125.500,159.388 125.529,159.301 123.662 L 159.250 122.583 151.355 122.580 C 145.705 122.578,143.440 122.629,143.389 122.762 M215.752 122.805 C 215.633 123.115,215.645 124.916,215.768 125.236 C 215.842 125.430,216.099 125.500,216.738 125.500 C 217.968 125.500,219.092 125.924,219.588 126.575 L 220.000 127.115 220.000 141.387 C 220.000 158.655,220.200 157.500,217.213 157.500 C 215.473 157.500,215.333 157.604,215.333 158.909 C 215.333 159.494,215.372 160.073,215.419 160.195 C 215.488 160.375,216.967 160.415,223.377 160.407 L 231.250 160.397 231.299 159.088 C 231.359 157.489,231.382 157.507,229.333 157.497 C 226.549 157.483,226.601 157.616,226.533 150.387 L 226.480 144.690 227.242 144.576 C 229.323 144.264,231.168 144.866,232.690 146.353 C 233.399 147.046,235.833 150.559,235.833 150.890 C 235.833 150.924,236.221 151.619,236.694 152.434 C 237.168 153.250,237.692 154.193,237.860 154.531 C 238.027 154.869,238.233 155.188,238.316 155.239 C 238.451 155.323,239.311 156.702,240.480 158.712 C 240.698 159.087,241.148 159.645,241.480 159.952 L 242.083 160.509 247.101 160.529 C 252.914 160.552,252.500 160.661,252.500 159.107 C 252.500 157.610,252.397 157.500,250.992 157.500 C 249.071 157.500,246.806 155.854,244.826 153.021 C 244.417 152.436,243.972 151.799,243.837 151.604 C 243.701 151.409,243.231 150.762,242.792 150.167 C 242.353 149.571,241.939 149.008,241.872 148.917 C 241.805 148.825,241.431 148.322,241.042 147.799 C 240.652 147.276,240.333 146.791,240.333 146.721 C 240.333 146.339,237.706 143.868,237.175 143.752 C 236.612 143.628,236.482 143.333,236.990 143.333 C 237.168 143.333,237.355 143.267,237.405 143.185 C 237.456 143.104,237.704 142.987,237.957 142.925 C 238.602 142.769,240.333 141.943,240.333 141.792 C 240.333 141.723,240.443 141.667,240.578 141.667 C 240.910 141.667,242.605 140.488,243.472 139.656 C 246.215 137.020,247.214 132.309,245.724 129.037 C 245.485 128.512,245.235 128.046,245.168 128.000 C 245.101 127.954,244.917 127.664,244.758 127.354 C 244.008 125.891,241.427 124.055,239.333 123.495 C 238.921 123.385,238.396 123.229,238.167 123.149 C 236.851 122.688,235.075 122.610,225.627 122.597 C 217.619 122.586,215.822 122.624,215.752 122.805 M279.242 122.647 C 279.201 122.688,279.167 123.347,279.167 124.111 L 279.167 125.500 280.742 125.500 C 282.493 125.500,283.781 125.721,284.682 126.177 L 285.281 126.480 285.390 128.766 C 285.532 131.728,285.533 155.043,285.392 156.078 C 285.226 157.289,284.767 157.499,282.281 157.499 C 279.702 157.500,279.667 157.522,279.667 159.079 C 279.667 159.767,279.745 160.362,279.843 160.423 C 279.971 160.502,296.072 160.581,297.625 160.510 C 297.774 160.503,297.833 160.104,297.833 159.103 C 297.833 157.475,297.870 157.506,295.901 157.502 C 292.642 157.496,292.500 157.045,292.500 146.720 C 292.500 141.573,292.442 138.833,292.333 138.833 C 292.225 138.833,292.167 136.695,292.167 132.753 L 292.167 126.672 292.630 126.154 C 293.171 125.548,293.952 125.351,295.857 125.341 C 296.860 125.335,297.152 125.277,297.232 125.070 C 297.374 124.701,297.354 122.952,297.206 122.749 C 297.085 122.583,279.406 122.483,279.242 122.647 M232.333 125.694 C 233.306 125.917,235.346 126.659,235.667 126.905 C 235.804 127.011,236.135 127.207,236.402 127.341 C 238.901 128.589,240.172 132.482,239.108 135.626 C 237.745 139.654,234.710 141.509,229.292 141.623 L 226.500 141.682 226.500 134.528 C 226.500 125.870,226.506 125.831,227.845 125.492 C 228.515 125.323,231.254 125.446,232.333 125.694 M88.417 130.527 C 88.783 130.993,89.208 131.518,89.360 131.695 C 89.757 132.156,90.707 133.319,91.000 133.703 C 91.138 133.883,91.419 134.240,91.625 134.497 C 91.831 134.754,92.000 135.044,92.000 135.141 C 92.000 135.238,92.094 135.377,92.209 135.450 C 92.324 135.523,92.637 135.883,92.905 136.250 C 93.172 136.617,93.509 137.035,93.654 137.179 C 93.798 137.324,94.067 137.651,94.250 137.906 C 94.433 138.161,94.660 138.456,94.753 138.560 C 94.846 138.665,95.282 139.237,95.721 139.833 C 96.160 140.429,96.643 141.067,96.794 141.250 C 97.936 142.632,99.821 144.888,100.393 145.558 C 100.773 146.002,101.144 146.472,101.218 146.601 C 101.291 146.731,101.516 147.009,101.718 147.219 C 101.919 147.429,102.233 147.787,102.417 148.013 C 102.600 148.239,103.155 148.895,103.650 149.471 C 104.567 150.539,104.464 150.738,103.303 150.144 C 102.349 149.656,98.393 150.151,96.726 150.966 C 95.129 151.747,92.559 154.190,91.815 155.634 C 91.688 155.881,91.546 156.121,91.500 156.167 C 91.454 156.212,91.274 156.531,91.099 156.875 C 90.493 158.066,89.037 157.689,88.232 156.132 C 87.716 155.135,87.120 129.649,87.613 129.673 C 87.689 129.677,88.050 130.061,88.417 130.527 M74.500 164.650 C 73.452 164.802,71.743 165.464,70.717 166.116 C 69.943 166.607,67.168 169.265,67.167 169.516 C 67.167 169.570,66.989 169.821,66.772 170.074 C 64.823 172.342,63.201 178.356,63.646 181.664 C 64.594 188.706,72.038 189.109,77.250 182.399 C 77.836 181.645,78.667 180.367,78.667 180.219 C 78.667 180.163,78.849 179.734,79.071 179.267 C 80.629 175.989,81.215 173.747,81.236 170.984 C 81.244 169.842,81.172 168.887,81.059 168.650 C 80.953 168.430,80.750 167.983,80.608 167.657 C 79.667 165.508,77.145 164.267,74.500 164.650 M76.975 167.103 C 79.796 167.668,79.167 172.968,75.660 178.185 C 75.297 178.725,74.709 179.598,74.353 180.125 C 73.638 181.184,73.014 181.870,72.192 182.500 C 71.893 182.729,71.484 183.056,71.282 183.227 C 71.081 183.397,70.504 183.727,70.000 183.960 C 66.194 185.716,64.462 182.324,66.658 177.417 C 66.822 177.050,67.010 176.577,67.076 176.366 C 67.141 176.155,67.451 175.529,67.764 174.975 C 68.077 174.421,68.333 173.900,68.333 173.817 C 68.333 173.734,68.408 173.667,68.500 173.667 C 68.592 173.667,68.667 173.599,68.667 173.517 C 68.667 173.349,69.557 171.950,70.342 170.886 C 71.055 169.917,72.331 168.667,72.605 168.667 C 72.731 168.667,72.833 168.609,72.833 168.539 C 72.833 167.878,75.767 166.862,76.975 167.103 M337.939 171.148 C 336.735 172.189,334.616 173.260,333.047 173.619 C 332.367 173.774,332.261 174.093,332.645 174.829 C 333.119 175.738,332.882 176.794,331.656 179.224 C 331.479 179.576,331.333 179.940,331.333 180.032 C 331.333 180.124,331.075 180.743,330.759 181.408 C 330.444 182.074,330.134 182.822,330.071 183.072 C 330.009 183.322,329.779 183.895,329.562 184.346 C 329.345 184.796,329.167 185.201,329.167 185.246 C 329.167 185.290,328.878 185.947,328.525 186.705 C 328.173 187.463,327.753 188.383,327.592 188.750 C 327.432 189.117,327.158 189.722,326.984 190.094 C 326.809 190.467,326.667 190.861,326.667 190.969 C 326.667 191.078,326.592 191.167,326.500 191.167 C 326.408 191.167,326.333 191.249,326.333 191.350 C 326.333 191.451,326.224 191.769,326.091 192.058 C 325.958 192.347,325.702 192.958,325.523 193.417 C 325.344 193.875,324.884 194.925,324.501 195.750 C 324.118 196.575,323.632 197.625,323.421 198.083 C 323.211 198.542,322.812 199.404,322.535 200.000 C 321.442 202.354,321.167 202.985,321.167 203.143 C 321.167 203.741,319.705 205.858,318.809 206.556 C 317.647 207.462,314.547 207.531,313.349 206.678 C 312.179 205.845,312.167 205.745,312.165 196.793 C 312.164 190.659,312.106 188.315,311.919 186.917 C 311.758 185.714,311.672 183.613,311.670 180.805 C 311.666 175.152,311.628 175.218,314.917 175.044 C 316.822 174.942,316.828 174.937,316.828 173.583 C 316.828 173.033,316.773 172.508,316.706 172.417 C 316.627 172.309,313.403 172.250,307.625 172.249 L 298.667 172.248 298.667 173.772 L 298.667 175.296 301.042 175.367 C 303.618 175.443,304.471 175.714,304.758 176.548 C 305.005 177.262,305.048 205.176,304.803 205.901 C 304.432 207.000,304.063 207.152,301.471 207.275 C 299.344 207.377,299.186 207.407,299.098 207.734 C 298.976 208.189,298.975 209.166,299.096 209.771 L 299.192 210.250 313.971 210.238 L 328.750 210.226 328.750 208.905 L 328.750 207.583 327.083 207.493 C 324.173 207.335,323.845 206.636,325.168 203.417 C 325.243 203.233,325.433 202.671,325.589 202.167 C 325.746 201.662,325.940 201.120,326.020 200.961 C 326.101 200.801,326.167 200.588,326.167 200.486 C 326.167 200.384,326.287 200.027,326.434 199.692 C 326.789 198.882,326.884 198.640,327.438 197.125 L 327.910 195.833 334.602 195.833 L 341.295 195.833 341.641 196.708 C 341.832 197.190,342.039 197.808,342.100 198.083 C 342.162 198.358,342.266 198.658,342.332 198.750 C 342.398 198.842,342.492 199.067,342.542 199.250 C 342.591 199.433,342.864 200.221,343.148 201.000 C 343.432 201.779,343.665 202.550,343.666 202.712 C 343.666 202.875,343.823 203.438,344.015 203.962 C 344.986 206.625,344.791 207.111,342.667 207.314 L 341.583 207.417 341.533 208.495 C 341.505 209.088,341.523 209.737,341.574 209.937 L 341.665 210.301 349.584 210.299 L 357.503 210.297 357.594 209.935 C 357.644 209.736,357.662 209.088,357.634 208.495 L 357.583 207.417 356.833 207.373 C 355.570 207.300,353.833 206.978,353.833 206.818 C 353.833 206.735,353.747 206.667,353.641 206.667 C 353.094 206.667,351.799 204.745,351.001 202.750 C 350.927 202.567,350.747 202.143,350.600 201.808 C 350.453 201.473,350.333 201.095,350.333 200.966 C 350.333 200.838,350.269 200.662,350.191 200.575 C 350.039 200.407,349.046 197.807,348.602 196.417 C 348.456 195.958,348.105 194.908,347.821 194.083 C 347.538 193.258,347.233 192.321,347.145 192.000 C 347.057 191.679,346.916 191.267,346.832 191.083 C 346.748 190.900,346.557 190.338,346.407 189.833 C 346.257 189.329,346.038 188.654,345.919 188.333 C 345.801 188.012,345.429 186.925,345.092 185.917 C 344.756 184.908,344.413 183.933,344.330 183.750 C 344.247 183.567,344.056 183.004,343.905 182.500 C 343.579 181.414,342.860 179.222,342.675 178.750 C 342.603 178.567,342.468 178.229,342.375 178.000 C 342.155 177.458,341.462 175.539,340.991 174.167 C 340.383 172.398,340.234 172.012,340.114 171.892 C 340.051 171.829,340.000 171.653,340.000 171.501 C 340.000 170.497,338.907 170.310,337.939 171.148 M214.167 171.328 C 212.974 171.500,211.823 171.741,210.583 172.080 C 210.033 172.230,209.415 172.394,209.208 172.446 C 209.002 172.497,208.833 172.602,208.833 172.679 C 208.833 172.755,208.552 172.869,208.208 172.932 C 207.497 173.062,204.870 174.412,204.500 174.838 C 204.454 174.891,204.117 175.153,203.750 175.420 C 202.544 176.298,200.236 178.732,199.723 179.667 C 199.446 180.171,198.952 181.048,198.624 181.616 C 198.296 182.184,197.980 182.822,197.920 183.033 C 197.861 183.244,197.752 183.567,197.679 183.750 C 196.518 186.657,196.319 193.691,197.318 196.500 C 197.399 196.729,197.598 197.367,197.759 197.917 C 198.731 201.238,201.376 204.943,204.333 207.126 C 205.401 207.914,207.827 209.167,208.284 209.167 C 208.458 209.167,208.671 209.231,208.758 209.309 C 209.017 209.542,211.642 210.302,213.189 210.592 C 215.815 211.084,221.056 210.793,224.167 209.983 C 227.443 209.129,228.287 208.832,230.667 207.696 C 231.670 207.217,231.633 207.447,231.511 202.492 C 231.374 196.869,231.473 196.667,234.351 196.667 C 235.678 196.667,235.722 196.607,235.634 194.910 L 235.583 193.917 226.951 193.873 L 218.319 193.830 218.368 195.123 L 218.417 196.417 220.545 196.511 C 221.838 196.569,222.750 196.683,222.870 196.803 C 222.978 196.911,223.189 197.000,223.339 197.000 C 223.489 197.000,223.830 197.244,224.097 197.542 L 224.583 198.083 224.583 201.083 C 224.583 203.970,224.568 204.105,224.186 204.667 C 222.638 206.941,216.784 207.987,213.388 206.596 C 210.268 205.318,208.352 203.723,206.663 201.000 C 206.350 200.496,206.050 200.046,205.997 200.000 C 205.908 199.924,205.584 199.235,205.136 198.167 C 205.040 197.938,204.896 197.622,204.817 197.466 C 204.738 197.309,204.628 196.859,204.574 196.466 C 204.519 196.072,204.410 195.600,204.332 195.417 C 204.183 195.068,204.119 194.724,203.819 192.667 C 203.571 190.958,203.730 186.683,204.086 185.500 C 204.238 184.996,204.432 184.283,204.517 183.917 C 204.655 183.325,205.445 181.553,205.668 181.333 C 205.715 181.287,205.901 180.969,206.081 180.625 C 206.262 180.281,206.451 180.000,206.502 180.000 C 206.553 180.000,206.724 179.781,206.882 179.514 C 207.126 179.100,208.525 177.642,209.443 176.845 C 213.006 173.749,220.063 173.099,222.333 175.657 C 222.379 175.709,222.942 176.174,223.583 176.691 C 225.863 178.527,227.883 181.119,229.070 183.730 L 229.515 184.710 230.216 184.612 C 231.779 184.392,232.092 184.040,231.854 182.763 C 231.599 181.390,231.033 176.563,230.875 174.417 C 230.782 173.157,230.647 173.000,229.654 173.000 C 228.898 173.000,228.832 173.035,228.572 173.583 C 228.420 173.904,228.225 174.167,228.139 174.167 C 227.895 174.167,227.000 173.672,227.000 173.536 C 227.000 173.408,226.754 173.292,225.000 172.589 C 221.990 171.383,217.451 170.854,214.167 171.328 M254.670 172.064 C 254.576 172.157,254.500 172.738,254.500 173.355 C 254.500 174.793,254.688 175.000,255.998 175.000 C 257.612 175.000,258.696 175.602,259.599 177.000 L 260.083 177.750 260.071 191.250 C 260.058 206.235,260.125 205.339,258.952 206.234 C 258.476 206.597,258.205 206.659,256.910 206.701 L 255.417 206.750 255.369 208.167 L 255.322 209.583 261.536 209.568 L 267.750 209.552 267.798 208.110 L 267.846 206.667 266.715 206.654 C 263.608 206.621,263.514 206.117,263.395 189.000 L 263.322 178.417 263.905 179.083 C 264.225 179.450,264.490 179.795,264.494 179.851 C 264.497 179.906,264.669 180.136,264.875 180.362 C 265.081 180.589,265.424 181.005,265.637 181.287 C 265.851 181.570,266.282 182.089,266.596 182.442 C 266.910 182.795,267.166 183.146,267.167 183.222 C 267.167 183.334,268.175 184.677,268.501 185.000 C 268.547 185.046,268.783 185.346,269.024 185.667 C 269.265 185.987,269.628 186.438,269.831 186.667 C 270.034 186.896,270.737 187.796,271.392 188.667 C 272.047 189.537,272.846 190.524,273.167 190.860 C 274.080 191.814,275.356 193.304,276.057 194.234 C 276.409 194.701,277.048 195.458,277.475 195.917 C 277.903 196.375,278.762 197.387,279.383 198.167 C 280.922 200.094,281.536 200.840,281.843 201.152 C 281.986 201.298,282.586 202.017,283.176 202.750 C 283.766 203.483,284.493 204.322,284.791 204.614 C 285.089 204.906,285.333 205.206,285.333 205.282 C 285.333 205.358,285.506 205.607,285.717 205.835 C 285.928 206.063,286.538 206.775,287.073 207.417 C 288.226 208.802,288.921 209.500,289.146 209.500 C 289.236 209.500,289.423 209.613,289.561 209.752 C 290.030 210.221,291.232 210.261,291.642 209.821 L 292.000 209.437 292.000 199.302 C 292.000 192.656,291.943 189.167,291.833 189.167 C 291.606 189.167,291.615 178.583,291.844 177.167 C 292.125 175.427,292.749 175.000,295.013 175.000 L 295.833 175.000 295.833 173.583 C 295.833 172.804,295.777 172.162,295.708 172.156 C 295.640 172.150,292.696 172.134,289.167 172.122 L 282.750 172.099 282.701 173.315 C 282.636 174.915,282.718 175.000,284.340 175.000 C 288.176 175.000,288.400 175.910,288.607 192.375 C 288.714 200.890,288.855 200.453,286.823 197.904 C 286.049 196.934,285.229 195.927,285.000 195.665 C 284.562 195.164,284.364 194.917,283.001 193.167 C 282.537 192.571,281.900 191.783,281.586 191.417 C 281.271 191.050,280.774 190.412,280.480 190.000 C 280.187 189.588,279.902 189.213,279.848 189.167 C 279.794 189.121,279.434 188.668,279.048 188.160 C 278.663 187.652,278.063 186.926,277.715 186.546 C 277.368 186.166,276.933 185.649,276.750 185.396 C 275.772 184.049,275.096 183.173,274.512 182.500 C 273.388 181.202,272.239 179.769,271.906 179.250 C 271.517 178.643,271.390 178.479,270.750 177.757 C 270.139 177.069,269.913 176.793,269.171 175.833 C 268.853 175.421,268.552 175.046,268.503 175.000 C 268.454 174.954,268.153 174.555,267.832 174.113 C 267.512 173.670,266.981 173.006,266.653 172.637 L 266.056 171.965 260.448 171.929 C 256.815 171.906,254.780 171.954,254.670 172.064 M142.736 172.153 C 142.698 172.191,142.667 172.847,142.667 173.611 L 142.667 175.000 143.958 175.000 C 146.820 175.001,148.534 175.524,148.868 176.499 C 149.101 177.182,149.177 204.202,148.949 205.537 C 148.729 206.821,148.284 207.031,145.521 207.151 L 143.250 207.250 143.201 208.372 C 143.118 210.261,142.167 210.085,152.359 210.074 L 161.250 210.064 161.299 208.780 C 161.355 207.297,161.521 207.429,159.324 207.216 C 157.934 207.080,157.666 207.002,157.210 206.595 C 156.142 205.644,156.167 205.878,156.167 196.683 C 156.167 189.372,156.136 188.333,155.917 188.333 C 155.655 188.333,155.560 177.430,155.812 176.256 C 156.005 175.357,156.802 175.000,158.619 175.000 C 160.765 175.000,160.833 174.951,160.833 173.411 C 160.833 172.727,160.777 172.162,160.708 172.156 C 160.073 172.104,142.788 172.100,142.736 172.153 M163.500 172.139 C 163.260 172.219,163.289 174.556,163.533 174.800 C 163.648 174.915,164.233 175.005,164.908 175.012 C 167.553 175.040,167.833 175.641,167.833 181.285 C 167.833 183.984,167.773 185.500,167.667 185.500 C 167.557 185.500,167.499 188.989,167.496 195.625 C 167.492 207.035,167.584 206.255,166.187 206.745 C 165.785 206.885,164.904 207.000,164.223 207.000 L 162.987 207.000 163.035 208.457 L 163.083 209.915 170.964 209.924 C 179.993 209.934,179.065 210.129,178.968 208.243 L 178.917 207.250 177.250 207.156 C 174.085 206.978,174.167 207.173,174.167 199.828 L 174.167 194.167 175.927 194.167 C 178.687 194.167,180.425 195.274,181.903 197.974 C 182.262 198.630,182.619 199.167,182.695 199.167 C 182.771 199.167,182.833 199.273,182.833 199.404 C 182.833 199.534,183.008 199.853,183.222 200.112 C 183.436 200.371,183.727 200.808,183.868 201.083 C 184.665 202.639,185.780 204.511,186.002 204.667 C 186.068 204.713,186.178 204.930,186.246 205.149 C 186.489 205.926,188.165 208.446,189.115 209.462 L 189.647 210.031 194.824 210.057 L 200.000 210.083 200.000 208.649 L 200.000 207.215 198.677 207.104 C 196.383 206.913,194.287 205.226,191.683 201.478 C 191.214 200.802,190.700 200.071,190.540 199.852 C 190.381 199.634,189.897 198.959,189.466 198.352 C 189.035 197.746,188.616 197.173,188.536 197.079 C 188.456 196.985,188.248 196.691,188.075 196.427 C 187.301 195.246,185.573 193.509,184.958 193.294 C 184.344 193.079,184.381 192.943,185.125 192.677 C 185.905 192.399,188.401 191.188,189.268 190.667 C 192.708 188.598,194.815 183.750,193.888 180.034 C 193.058 176.710,189.930 173.642,186.605 172.892 C 186.135 172.786,185.225 172.570,184.583 172.411 C 183.525 172.150,164.216 171.901,163.500 172.139 M233.736 172.153 C 233.698 172.191,233.667 172.847,233.667 173.611 L 233.667 175.000 234.875 175.001 C 237.096 175.002,238.967 175.403,239.493 175.992 L 239.949 176.503 240.043 183.876 C 240.180 194.677,240.025 205.443,239.722 206.102 C 239.368 206.874,238.833 207.038,236.375 207.129 L 234.167 207.210 234.167 208.587 C 234.167 209.545,234.230 209.983,234.375 210.027 C 234.490 210.061,238.521 210.084,243.333 210.078 L 252.083 210.067 252.132 208.700 L 252.180 207.333 251.382 207.332 C 247.024 207.327,247.008 207.289,247.004 196.625 C 247.001 191.211,246.942 188.333,246.833 188.333 C 246.578 188.333,246.609 176.475,246.866 175.912 C 247.188 175.204,247.802 175.000,249.617 174.997 C 251.718 174.994,251.693 175.014,251.633 173.420 L 251.583 172.119 242.694 172.101 C 237.806 172.091,233.774 172.115,233.736 172.153 M180.417 175.249 C 185.249 176.281,187.592 178.745,187.550 182.750 C 187.534 184.307,187.144 185.890,186.629 186.492 C 186.485 186.660,186.316 186.959,186.253 187.156 C 186.086 187.682,184.658 189.072,183.638 189.702 C 181.572 190.977,179.751 191.321,175.708 191.198 L 174.667 191.167 174.670 183.625 C 174.674 175.442,174.645 175.709,175.583 175.193 C 176.070 174.926,179.063 174.960,180.417 175.249 M335.767 178.833 C 335.975 179.429,336.275 180.367,336.433 180.917 C 336.592 181.467,336.774 181.992,336.839 182.083 C 336.904 182.175,337.009 182.540,337.073 182.896 C 337.137 183.251,337.253 183.663,337.331 183.812 C 337.409 183.961,337.597 184.533,337.750 185.083 C 337.902 185.633,338.162 186.458,338.328 186.917 C 338.493 187.375,338.756 188.237,338.911 188.833 C 339.399 190.706,339.703 191.740,339.854 192.039 C 339.934 192.199,340.000 192.405,340.000 192.498 C 340.000 192.608,338.080 192.667,334.423 192.667 L 328.845 192.667 329.184 191.875 C 329.371 191.440,329.638 190.821,329.779 190.500 C 330.223 189.484,330.305 189.261,330.408 188.787 C 330.463 188.533,330.694 187.919,330.921 187.423 C 331.148 186.927,331.333 186.478,331.333 186.426 C 331.333 186.373,331.480 186.012,331.658 185.623 C 331.837 185.235,332.206 184.354,332.478 183.667 C 332.750 182.979,333.105 182.117,333.266 181.750 C 333.428 181.383,333.687 180.746,333.842 180.333 C 333.997 179.921,334.240 179.283,334.382 178.917 C 334.525 178.550,334.685 178.113,334.737 177.946 C 334.927 177.340,335.383 177.733,335.767 178.833 " stroke="none" fill="#242c4c" fill-rule="evenodd"></path><path id="path2" d="" stroke="none" fill="#e85028" fill-rule="evenodd"></path><path id="path3" d="" stroke="none" fill="#585028" fill-rule="evenodd"></path><path id="path4" d="" stroke="none" fill="#245428" fill-rule="evenodd"></path></g></svg>